<svg
        version="1.1"
        id="Calque_1"
        x="0px"
        y="0px"
        viewBox="0 0 1000 1000"
        style="enable-background:new 0 0 1000 1000;"
        xml:space="preserve"
        xmlns="http://www.w3.org/2000/svg"><defs
   id="defs59" />
    <style
            type="text/css"
            id="style2">
	.st0{fill:#FFFFFF;}
	.st1{fill:#C2AC82;}
</style>
    <g
            id="g54">
	<g
            id="g52">
		<path
                class="st0"
                d="M80.25,254.61c279.83,0,559.67,0,839.5,0c0,156.67,0,313.33,0,470c-279.83,0-559.67,0-839.5,0    C80.25,567.94,80.25,411.28,80.25,254.61z M891.85,287.7c0,138.39,0,276.59,0,414.76c4.94,0,9.56,0,14.35,0    c0-143.14,0-286.1,0-429.21c-271.98,0-543.83,0-815.79,0c0,143.14,0,286.17,0,429.2c4.71,0,9.25,0,14.03,0    c0-138.33,0-276.47,0-414.74C366.93,287.7,629.14,287.7,891.85,287.7z M862.67,312.76c-243.24,0-486.28,0-729.25,0    c0,9.65,0,19.09,0,28.53c243.18,0,486.16,0,729.25,0C862.67,331.73,862.67,322.35,862.67,312.76z M862.67,548.07    c-243.24,0-486.28,0-729.25,0c0,9.66,0,19.1,0,28.53c243.18,0,486.16,0,729.25,0C862.67,567.05,862.67,557.67,862.67,548.07z     M133.38,384.92c243.17,0,486.19,0,729.2,0c0-9.57,0-18.92,0-28.27c-243.16,0-486.13,0-729.2,0    C133.38,366.14,133.38,375.5,133.38,384.92z M862.66,399.16c-243.23,0-486.26,0-729.22,0c0,9.56,0,18.92,0,28.26    c243.17,0,486.13,0,729.22,0C862.66,417.94,862.66,408.65,862.66,399.16z M862.62,619.15c0-9.6,0-18.96,0-28.45    c-243.13,0-486.1,0-729.19,0c0,9.55,0,18.96,0,28.45C376.55,619.15,619.46,619.15,862.62,619.15z M862.66,633.27    c-243.23,0-486.24,0-729.23,0c0,9.58,0,18.93,0,28.25c243.18,0,486.14,0,729.23,0C862.66,652.07,862.66,642.78,862.66,633.27z     M862.66,675.74c-243.23,0-486.24,0-729.23,0c0,9.57,0,18.92,0,28.24c243.18,0,486.14,0,729.23,0    C862.66,694.54,862.66,685.25,862.66,675.74z M266.5,527.15c0.06-0.54,0.16-0.87,0.12-1.19c-0.78-7.47-1.52-14.95-2.41-22.4    c-0.3-2.52-0.01-3.02,2.58-3.24c5.79-0.49,11.59-0.95,17.35-1.68c1.72-0.22,2.6,0.32,3.52,1.52c5.37,6.99,10.77,13.94,16.15,20.92    c2.02,2.62,2.72,2.84,6.21,1.65c-6.42-8.26-12.81-16.48-19.37-24.92c1.2-0.44,1.96-0.73,2.72-1.01    c9.04-3.33,13.74-11.96,11.61-21.3c-1.79-7.81-10.85-13.63-19.64-12.78c-6.85,0.67-13.72,1.11-20.57,1.73    c-2.68,0.24-5.35,0.7-8.11,1.07c2.01,20.88,3.99,41.44,5.97,62.04C264.16,527.41,265.23,527.29,266.5,527.15z M463.1,515.27    c9.36,0,18.37,0.39,27.32-0.11c8.17-0.46,15.2-3.99,20.53-10.44c5.53-6.7,7.39-14.45,7.09-23.01    c-0.48-13.84-10.71-26.55-24.4-28.12c-9.94-1.14-20.09-0.46-30.14-0.58c-0.13,0-0.27,0.18-0.4,0.27    C463.1,473.87,463.1,494.47,463.1,515.27z M330.5,491.41c10.69-0.73,21.02-1.43,31.54-2.14c-0.08-1.3-0.15-2.31-0.23-3.63    c-10.7,0.76-21.08,1.5-31.73,2.26c-0.5-8.49-0.97-16.62-1.46-24.94c13.9-0.92,27.52-1.82,41.39-2.73    c-0.2-1.39-0.35-2.51-0.57-4.03c-15.12,1.06-30.13,2.11-45.31,3.18c1.4,20.96,2.78,41.59,4.17,62.35    c15.62-1.03,30.9-2.05,46.34-3.07c-0.07-1.43-0.12-2.55-0.18-3.98c-14.23,0.92-28.19,1.82-42.44,2.73    C331.51,508.6,331.01,500.18,330.5,491.41z M647.67,486.37c-10.53-0.61-20.84-1.2-31.43-1.81c0.49-8.59,0.95-16.63,1.42-24.79    c14.11,0.79,27.57,1.55,41.11,2.3c0.07-0.96,0.13-1.45,0.13-1.94c0-0.48-0.05-0.97-0.11-1.89c-15.07-0.92-30.06-1.83-45.04-2.74    c-0.3,3.56-0.61,6.5-0.8,9.46c-0.53,8.68-1.04,17.36-1.51,26.05c-0.46,8.45-0.86,16.9-1.33,25.34c-0.08,1.37,0.32,1.96,1.77,1.99    c4.16,0.09,8.31,0.23,12.46,0.46c7.37,0.41,14.74,0.92,22.11,1.37c3.27,0.2,6.54,0.39,9.77,0.58c0.22-1.42,0.4-2.53,0.63-4.01    c-14.2-0.83-28.23-1.66-42.42-2.49c0.54-8.82,1.05-17.31,1.59-26.06c10.68,0.6,21.07,1.19,31.64,1.79    C647.67,488.6,647.67,487.64,647.67,486.37z M537.98,452.7c0,10.1,0,19.63,0,29.17c0,1.5-0.02,3-0.07,4.49    c-0.29,9.19-0.58,18.39-0.9,27.58c-0.05,1.4,0.54,1.94,1.92,1.91c1.27-0.03,2.03-0.33,2.06-1.81c0.12-5.55,0.31-11.1,0.49-16.65    c0.11-3.44,0.25-6.88,0.37-10.37c14.91,0.36,29.39,0.71,43.69,1.05c0,9.64,0,19.06,0,28.63c1.06,0,2.33,0,3.69,0    c0.56-20.83,1.12-41.49,1.68-62.15c-1.49,0-2.62,0-4.04,0c-0.33,9.8-0.65,19.45-0.99,29.55c-14.74-0.38-29.27-0.75-43.5-1.12    c0-10.14,0-19.72,0-29.5C541.41,453.3,540.14,453.08,537.98,452.7z M447.97,515.58c-0.2-0.54-0.28-0.85-0.43-1.14    c-10.2-19.9-20.39-39.81-30.63-59.69c-0.29-0.56-1.02-0.91-1.54-1.35c-0.43,0.57-0.98,1.08-1.26,1.72    c-7.57,17.72-15.12,35.46-22.66,53.19c-1.31,3.07-2.58,6.16-3.92,9.35c4.45,0.33,4.46,0.33,6.01-3.34c0.68-1.61,1.35-3.22,2-4.84    c1.99-5,1.99-4.99,7.5-5.11c7.97-0.17,15.93-0.33,23.9-0.55c2.81-0.08,5.62-0.46,8.43-0.44c0.84,0.01,2.02,0.7,2.46,1.43    c1.49,2.49,2.73,5.13,4.05,7.73C443.68,516.11,443.67,516.11,447.97,515.58z M672.48,516.53c6.35,4.04,13.13,6.32,20.26,7.89    c6.98,1.53,13.61,1.05,20.08-2.08c9.61-4.65,11.82-20.2,1.59-25.79c-4.99-2.72-10.55-4.38-15.8-6.66c-3.94-1.71-8-3.31-11.63-5.57    c-3.53-2.2-4.76-5.81-3.75-10.02c1.19-4.95,5.42-8.51,11.03-9.49c5.91-1.03,11.61-0.12,17.16,1.79c3.25,1.12,6.34,2.71,9.56,4.12    c0.8-2.43,0.51-4.08-2.13-5.39c-6.81-3.36-13.91-4.65-21.48-4.52c-5.17,0.09-9.61,1.56-13.6,4.7c-7.23,5.69-7.36,16.7,0.22,21.87    c4.11,2.81,9.03,4.44,13.65,6.48c4.77,2.11,9.8,3.7,14.36,6.19c3.94,2.16,5.61,5.98,4.59,10.65c-1.16,5.34-5.56,9.15-11.55,10.21    c-7.06,1.25-13.76-0.24-20.27-2.63c-3.78-1.39-7.33-3.39-11.12-5.18C673.31,514.1,672.94,515.18,672.48,516.53z M235.41,475.43    c0.76-4.49,0.74-4.68-3.16-5.63c-5.89-1.45-11.89-1.43-17.81-0.36c-17.35,3.13-29.5,18.78-26.73,36.6    c1.41,9.03,5.26,16.6,13.03,21.78c12.43,8.29,31.34,7.22,42.98-2.36c2.33-1.92,2.54-3.03,0.94-5.63    c-5.45,5.3-12.02,8.12-19.48,9.19c-16.17,2.32-30.81-6.38-33.24-23.1c-2.68-18.43,10.95-32.4,27.65-33.04    C225.02,472.66,230.38,472.93,235.41,475.43z M771.32,468.72c-2.65,20.86-5.25,41.32-7.87,61.96c1.47,0.22,2.74,0.41,4.21,0.63    c1.25-9.68,2.47-19.09,3.71-28.75c9.16,1.14,17.94,2.23,26.79,3.34c0.24-1.26,0.43-2.21,0.68-3.51    c-9.13-1.2-18.04-2.37-27.02-3.55c1.09-8.66,2.14-16.96,3.23-25.63c13.36,1.68,26.57,3.34,39.75,5c1.08-3.75,0.9-3.92-2.59-4.35    c-8.49-1.04-16.96-2.2-25.44-3.28C781.78,469.95,776.76,469.37,771.32,468.72z M738.16,528.4c1.8-0.88,4.14,1.55,4.54-1.8    c0.81-6.75,1.41-13.52,2.14-20.28c0.93-8.65,1.9-17.3,2.83-25.96c0.5-4.66,0.95-9.33,1.44-14.24c-1.58,0-2.84,0-4.25,0    C742.65,486.66,740.45,507.1,738.16,528.4z M646.5,434.73c-0.13-0.26-0.26-0.51-0.38-0.77c-1.29,0.3-3.35,0.19-3.74,0.95    c-2.67,5.2-5,10.59-7.43,15.91c0.14,0.21,0.27,0.42,0.41,0.63c0.97-0.31,2.46-0.34,2.82-0.99    C641.07,445.29,643.75,439.99,646.5,434.73z M354.14,434.39c-4.07-0.27-4.02-0.26-5.06,3.18c-1.27,4.21-2.66,8.39-3.91,12.61    c-0.18,0.62,0.12,1.39,0.2,2.09c0.82-0.36,2.15-0.52,2.39-1.11C349.99,445.64,352.03,440.04,354.14,434.39z"
                id="path4"/>
        <path
                class="st1"
                d="M891.85,287.7c-262.71,0-524.93,0-787.4,0c0,138.27,0,276.41,0,414.74c-4.79,0-9.32,0-14.03,0    c0-143.03,0-286.05,0-429.2c271.96,0,543.81,0,815.79,0c0,143.11,0,286.07,0,429.21c-4.79,0-9.41,0-14.35,0    C891.85,564.29,891.85,426.09,891.85,287.7z"
                id="path6"/>
        <path
                class="st1"
                d="M862.67,312.76c0,9.59,0,18.98,0,28.53c-243.09,0-486.06,0-729.25,0c0-9.44,0-18.88,0-28.53    C376.4,312.76,619.43,312.76,862.67,312.76z"
                id="path8"/>
        <path
                class="st1"
                d="M862.67,548.07c0,9.6,0,18.98,0,28.53c-243.09,0-486.07,0-729.25,0c0-9.43,0-18.87,0-28.53    C376.4,548.07,619.43,548.07,862.67,548.07z"
                id="path10"/>
        <path
                class="st1"
                d="M133.38,384.92c0-9.42,0-18.77,0-28.27c243.07,0,486.04,0,729.2,0c0,9.36,0,18.71,0,28.27    C619.57,384.92,376.55,384.92,133.38,384.92z"
                id="path12"/>
        <path
                class="st1"
                d="M862.66,399.16c0,9.49,0,18.79,0,28.26c-243.09,0-486.05,0-729.22,0c0-9.35,0-18.7,0-28.26    C376.4,399.16,619.42,399.16,862.66,399.16z"
                id="path14"/>
        <path
                class="st1"
                d="M862.62,619.15c-243.16,0-486.07,0-729.19,0c0-9.49,0-18.9,0-28.45c243.1,0,486.06,0,729.19,0    C862.62,600.19,862.62,609.55,862.62,619.15z"
                id="path16"/>
        <path
                class="st1"
                d="M862.66,633.27c0,9.52,0,18.81,0,28.25c-243.09,0-486.05,0-729.23,0c0-9.32,0-18.67,0-28.25    C376.42,633.27,619.43,633.27,862.66,633.27z"
                id="path18"/>
        <path
                class="st1"
                d="M862.66,675.74c0,9.51,0,18.8,0,28.24c-243.09,0-486.05,0-729.23,0c0-9.32,0-18.67,0-28.24    C376.42,675.74,619.43,675.74,862.66,675.74z"
                id="path20"/>
        <path
                class="st1"
                d="M266.5,527.15c-1.27,0.14-2.34,0.25-3.87,0.42c-1.98-20.59-3.96-41.16-5.97-62.04    c2.77-0.37,5.43-0.83,8.11-1.07c6.85-0.62,13.72-1.07,20.57-1.73c8.79-0.86,17.85,4.97,19.64,12.78    c2.14,9.33-2.57,17.97-11.61,21.3c-0.76,0.28-1.52,0.56-2.72,1.01c6.56,8.44,12.95,16.66,19.37,24.92    c-3.49,1.18-4.19,0.97-6.21-1.65c-5.38-6.98-10.78-13.94-16.15-20.92c-0.92-1.2-1.81-1.74-3.52-1.52    c-5.76,0.73-11.56,1.18-17.35,1.68c-2.59,0.22-2.89,0.72-2.58,3.24c0.89,7.46,1.63,14.93,2.41,22.4    C266.65,526.28,266.56,526.61,266.5,527.15z M261.15,468.92c0,1.1-0.07,1.85,0.01,2.58c0.81,7.75,1.71,15.49,2.44,23.25    c0.16,1.76,0.76,2.32,2.46,2.14c4.46-0.49,8.94-0.8,13.39-1.34c3.95-0.48,8.03-0.66,11.76-1.88c9.71-3.17,13.19-13.78,7.31-21.46    c-2.76-3.61-6.7-5.37-11.1-5.3c-6.11,0.1-12.22,0.73-18.33,1.19C266.55,468.29,264,468.62,261.15,468.92z"
                id="path22"/>
        <path
                class="st1"
                d="M463.1,515.27c0-20.8,0-41.4,0-62c0.13-0.09,0.27-0.27,0.4-0.27c10.05,0.12,20.2-0.57,30.14,0.58    c13.7,1.57,23.92,14.28,24.4,28.12c0.3,8.56-1.56,16.32-7.09,23.01c-5.33,6.45-12.36,9.98-20.53,10.44    C481.46,515.66,472.45,515.27,463.1,515.27z M467.26,456.18c0,18.85,0,36.94,0,55.16c7.23,0,14.22,0.19,21.2-0.04    c10.16-0.33,17.68-5.17,22.44-14.15c2.55-4.81,2.71-10,2.7-15.36c-0.02-11.16-8.9-22.93-20.37-24.35    C484.7,456.38,476.02,456.56,467.26,456.18z"
                id="path24"/>
        <path
                class="st1"
                d="M330.5,491.41c0.52,8.78,1.01,17.19,1.53,26c14.25-0.92,28.21-1.82,42.44-2.73c0.07,1.43,0.12,2.54,0.18,3.98    c-15.45,1.02-30.72,2.03-46.34,3.07c-1.39-20.76-2.77-41.39-4.17-62.35c15.18-1.06,30.18-2.12,45.31-3.18    c0.21,1.52,0.37,2.64,0.57,4.03c-13.87,0.92-27.5,1.82-41.39,2.73c0.49,8.31,0.96,16.45,1.46,24.94    c10.66-0.76,21.03-1.5,31.73-2.26c0.09,1.32,0.15,2.33,0.23,3.63C351.51,489.98,341.19,490.68,330.5,491.41z"
                id="path26"/>
        <path
                class="st1"
                d="M647.67,486.37c0,1.27,0,2.23,0,3.62c-10.57-0.6-20.96-1.18-31.64-1.79c-0.53,8.75-1.05,17.24-1.59,26.06    c14.19,0.83,28.22,1.66,42.42,2.49c-0.23,1.48-0.41,2.6-0.63,4.01c-3.23-0.19-6.5-0.38-9.77-0.58    c-7.37-0.46-14.73-0.96-22.11-1.37c-4.15-0.23-8.31-0.37-12.46-0.46c-1.45-0.03-1.85-0.61-1.77-1.99    c0.47-8.45,0.87-16.89,1.33-25.34c0.48-8.68,0.98-17.37,1.51-26.05c0.18-2.95,0.49-5.9,0.8-9.46c14.98,0.91,29.97,1.82,45.04,2.74    c0.06,0.92,0.11,1.4,0.11,1.89c0,0.49-0.06,0.98-0.13,1.94c-13.53-0.76-26.99-1.51-41.11-2.3c-0.47,8.16-0.93,16.2-1.42,24.79    C626.82,485.18,637.14,485.77,647.67,486.37z"
                id="path28"/>
        <path
                class="st1"
                d="M537.98,452.7c2.16,0.38,3.43,0.6,4.4,0.77c0,9.77,0,19.36,0,29.5c14.23,0.37,28.76,0.74,43.5,1.12    c0.34-10.1,0.66-19.75,0.99-29.55c1.42,0,2.55,0,4.04,0c-0.56,20.66-1.11,41.32-1.68,62.15c-1.36,0-2.63,0-3.69,0    c0-9.57,0-18.99,0-28.63c-14.31-0.34-28.78-0.69-43.69-1.05c-0.13,3.49-0.26,6.93-0.37,10.37c-0.18,5.55-0.37,11.1-0.49,16.65    c-0.03,1.48-0.79,1.79-2.06,1.81c-1.39,0.03-1.97-0.51-1.92-1.91c0.32-9.19,0.61-18.39,0.9-27.58c0.05-1.5,0.07-2.99,0.07-4.49    C537.98,472.34,537.98,462.8,537.98,452.7z"
                id="path30"/>
        <path
                class="st1"
                d="M447.97,515.58c-4.3,0.54-4.29,0.53-6.09-3.03c-1.31-2.6-2.55-5.24-4.05-7.73c-0.44-0.73-1.62-1.42-2.46-1.43    c-2.81-0.02-5.62,0.36-8.43,0.44c-7.97,0.22-15.93,0.38-23.9,0.55c-5.51,0.12-5.5,0.11-7.5,5.11c-0.65,1.62-1.32,3.23-2,4.84    c-1.56,3.67-1.56,3.67-6.01,3.34c1.33-3.19,2.61-6.28,3.92-9.35c7.54-17.74,15.09-35.47,22.66-53.19    c0.27-0.63,0.83-1.15,1.26-1.72c0.52,0.45,1.25,0.79,1.54,1.35c10.24,19.88,20.43,39.79,30.63,59.69    C447.68,514.72,447.77,515.04,447.97,515.58z M415.8,460.85c-5.68,13.69-11.06,26.68-16.69,40.23    c12.33-0.41,24.04-0.79,36.31-1.19C428.82,486.77,422.47,474.14,415.8,460.85z"
                id="path32"/>
        <path
                class="st1"
                d="M672.48,516.53c0.46-1.35,0.83-2.43,1.18-3.44c3.79,1.79,7.34,3.79,11.12,5.18    c6.52,2.4,13.22,3.88,20.27,2.63c5.99-1.06,10.39-4.88,11.55-10.21c1.02-4.67-0.65-8.49-4.59-10.65    c-4.55-2.49-9.59-4.09-14.36-6.19c-4.61-2.04-9.54-3.68-13.65-6.48c-7.58-5.17-7.44-16.18-0.22-21.87    c3.98-3.13,8.42-4.61,13.6-4.7c7.57-0.13,14.66,1.16,21.48,4.52c2.64,1.31,2.93,2.95,2.13,5.39c-3.23-1.41-6.31-3-9.56-4.12    c-5.55-1.91-11.25-2.82-17.16-1.79c-5.61,0.98-9.84,4.54-11.03,9.49c-1.01,4.21,0.22,7.82,3.75,10.02    c3.63,2.26,7.68,3.86,11.63,5.57c5.24,2.28,10.81,3.94,15.8,6.66c10.23,5.58,8.01,21.14-1.59,25.79    c-6.47,3.13-13.1,3.61-20.08,2.08C685.61,522.85,678.83,520.57,672.48,516.53z"
                id="path34"/>
        <path
                class="st1"
                d="M235.41,475.43c-5.03-2.51-10.39-2.77-15.82-2.56c-16.7,0.64-30.33,14.61-27.65,33.04    c2.43,16.72,17.07,25.42,33.24,23.1c7.45-1.07,14.03-3.89,19.48-9.19c1.59,2.6,1.39,3.71-0.94,5.63    c-11.64,9.58-30.55,10.65-42.98,2.36c-7.77-5.18-11.62-12.75-13.03-21.78c-2.77-17.82,9.38-33.46,26.73-36.6    c5.92-1.07,11.92-1.09,17.81,0.36C236.15,470.76,236.17,470.94,235.41,475.43z"
                id="path36"/>
        <path
                class="st1"
                d="M771.32,468.72c5.44,0.65,10.46,1.22,15.47,1.86c8.48,1.08,16.95,2.24,25.44,3.28    c3.49,0.43,3.67,0.6,2.59,4.35c-13.19-1.66-26.4-3.32-39.75-5c-1.09,8.67-2.14,16.97-3.23,25.63c8.97,1.18,17.89,2.35,27.02,3.55    c-0.25,1.3-0.44,2.26-0.68,3.51c-8.85-1.1-17.63-2.2-26.79-3.34c-1.25,9.65-2.46,19.07-3.71,28.75c-1.47-0.22-2.74-0.41-4.21-0.63    C766.08,510.04,768.68,489.58,771.32,468.72z"
                id="path38"/>
        <path
                class="st1"
                d="M738.16,528.4c2.29-21.31,4.49-41.74,6.7-62.28c1.41,0,2.67,0,4.25,0c-0.5,4.91-0.94,9.58-1.44,14.24    c-0.93,8.65-1.9,17.3-2.83,25.96c-0.72,6.76-1.33,13.53-2.14,20.28C742.3,529.95,739.96,527.52,738.16,528.4z"
                id="path40"/>
        <path
                class="st1"
                d="M646.5,434.73c-2.75,5.26-5.43,10.56-8.33,15.74c-0.36,0.65-1.85,0.67-2.82,0.99    c-0.14-0.21-0.27-0.42-0.41-0.63c2.44-5.33,4.76-10.71,7.43-15.91c0.39-0.76,2.45-0.65,3.74-0.95    C646.24,434.21,646.37,434.47,646.5,434.73z"
                id="path42"/>
        <path
                class="st1"
                d="M354.14,434.39c-2.12,5.64-4.16,11.24-6.38,16.77c-0.24,0.59-1.57,0.75-2.39,1.11    c-0.08-0.7-0.38-1.47-0.2-2.09c1.25-4.22,2.64-8.4,3.91-12.61C350.12,434.14,350.08,434.12,354.14,434.39z"
                id="path44"/>
        <path
                class="st0"
                d="M261.15,468.92c2.85-0.3,5.39-0.63,7.94-0.82c6.11-0.46,12.21-1.09,18.33-1.19c4.4-0.07,8.33,1.69,11.1,5.3    c5.88,7.67,2.4,18.29-7.31,21.46c-3.73,1.22-7.82,1.4-11.76,1.88c-4.45,0.54-8.93,0.86-13.39,1.34c-1.7,0.19-2.3-0.38-2.46-2.14    c-0.73-7.76-1.62-15.5-2.44-23.25C261.09,470.76,261.15,470.02,261.15,468.92z"
                id="path46"/>
        <path
                class="st0"
                d="M467.26,456.18c8.77,0.38,17.44,0.2,25.97,1.26c11.47,1.42,20.35,13.19,20.37,24.35    c0.01,5.37-0.15,10.55-2.7,15.36c-4.76,8.98-12.28,13.82-22.44,14.15c-6.98,0.23-13.97,0.04-21.2,0.04    C467.26,493.12,467.26,475.03,467.26,456.18z"
                id="path48"/>
        <path
                class="st0"
                d="M415.8,460.85c6.68,13.29,13.03,25.92,19.62,39.04c-12.26,0.4-23.97,0.79-36.31,1.19    C404.73,487.53,410.12,474.55,415.8,460.85z"
                id="path50"/>
	</g>
</g>
</svg>
